<?xml version="1.0" ?><svg fill="none" height="64" viewBox="0 0 64 64" width="64" xmlns="http://www.w3.org/2000/svg"><path d="M41.5 18.2574V16C41.5 15.4608 41.2106 14.9631 40.7421 14.6964C40.2735 14.4297 39.6978 14.4349 39.2342 14.7102L23.5882 24H20C16.9624 24 14.5 26.4624 14.5 29.5V34.5C14.5 37.458 16.8351 39.8705 19.7624 39.995L22.7574 37H20C18.6193 37 17.5 35.8807 17.5 34.5V29.5C17.5 28.1193 18.6193 27 20 27H24C24.2695 27 24.5341 26.9274 24.7658 26.7898L38.5 18.6351V21.2574L41.5 18.2574Z" fill="black"/><path d="M41.5 26.7426L38.5 29.7426V45.3649L28.6978 39.5448L26.5086 41.734L39.2342 49.2898C39.6978 49.5651 40.2735 49.5703 40.7421 49.3036C41.2106 49.0369 41.5 48.5392 41.5 48V26.7426Z" fill="black"/><path d="M49.5294 22.4375C48.9426 21.8527 47.9928 21.8544 47.408 22.4412C46.8233 23.028 46.8249 23.9777 47.4117 24.5625C49.3211 26.4653 50.5 29.0936 50.5 32C50.5 34.9064 49.3211 37.5347 47.4117 39.4375C46.8249 40.0223 46.8233 40.972 47.408 41.5588C47.9928 42.1456 48.9426 42.1473 49.5294 41.5625C51.9805 39.1198 53.5 35.736 53.5 32C53.5 28.264 51.9805 24.8802 49.5294 22.4375Z" fill="black"/><path d="M45.9488 25.9286C45.3571 25.3488 44.4074 25.3585 43.8276 25.9502C43.2478 26.5418 43.2574 27.4915 43.8491 28.0714C44.8696 29.0714 45.5 30.4607 45.5 32C45.5 33.5393 44.8696 34.9286 43.8491 35.9286C43.2574 36.5085 43.2478 37.4582 43.8276 38.0499C44.4074 38.6415 45.3571 38.6512 45.9488 38.0714C47.5214 36.5303 48.5 34.3781 48.5 32C48.5 29.6219 47.5214 27.4697 45.9488 25.9286Z" fill="black"/><path d="M49.0607 17.0607C49.6464 16.4749 49.6464 15.5251 49.0607 14.9393C48.4749 14.3536 47.5251 14.3536 46.9393 14.9393L14.9393 46.9393C14.3536 47.5251 14.3536 48.4749 14.9393 49.0607C15.5251 49.6464 16.4749 49.6464 17.0607 49.0607L49.0607 17.0607Z" fill="black"/></svg>